<svg xmlns="http://www.w3.org/2000/svg" fill="none" viewBox="4.05 3.82 284.82 103.82">
<path d="M4.04541 51.0002V4.45472H35.4091V12.5684H13.8864V23.6593H33.7955V31.7729H13.8864V42.8866H35.5V51.0002H4.04541ZM52.4602 4.45472L61.8466 20.3184H62.2102L71.642 4.45472H82.7557L68.5511 27.7275L83.0739 51.0002H71.7557L62.2102 35.1138H61.8466L52.3011 51.0002H41.0284L55.5966 27.7275L41.3011 4.45472H52.4602ZM88.983 51.0002V4.45472H107.347C110.877 4.45472 113.884 5.12897 116.369 6.47745C118.854 7.81079 120.748 9.66685 122.051 12.0457C123.369 14.4093 124.028 17.1366 124.028 20.2275C124.028 23.3184 123.362 26.0457 122.028 28.4093C120.695 30.7729 118.763 32.6138 116.233 33.932C113.718 35.2502 110.672 35.9093 107.097 35.9093H95.392V28.0229H105.506C107.4 28.0229 108.96 27.6972 110.188 27.0457C111.43 26.379 112.354 25.4623 112.96 24.2957C113.581 23.1138 113.892 21.7578 113.892 20.2275C113.892 18.682 113.581 17.3335 112.96 16.182C112.354 15.0153 111.43 14.1138 110.188 13.4775C108.945 12.826 107.369 12.5002 105.46 12.5002H98.8239V51.0002H88.983ZM130.42 51.0002V4.45472H148.784C152.299 4.45472 155.299 5.08351 157.784 6.34109C160.284 7.58351 162.186 9.34866 163.489 11.6366C164.807 13.9093 165.466 16.5835 165.466 19.6593C165.466 22.7502 164.799 25.4093 163.466 27.6366C162.133 29.8487 160.201 31.5457 157.67 32.7275C155.155 33.9093 152.11 34.5002 148.534 34.5002H136.239V26.5911H146.943C148.822 26.5911 150.383 26.3335 151.625 25.8184C152.867 25.3032 153.792 24.5305 154.398 23.5002C155.019 22.4699 155.33 21.1896 155.33 19.6593C155.33 18.1138 155.019 16.8108 154.398 15.7502C153.792 14.6896 152.86 13.8866 151.602 13.3411C150.36 12.7805 148.792 12.5002 146.898 12.5002H140.261V51.0002H130.42ZM155.557 29.8184L167.125 51.0002H156.261L144.943 29.8184H155.557ZM172.42 51.0002V4.45472H203.784V12.5684H182.261V23.6593H202.17V31.7729H182.261V42.8866H203.875V51.0002H172.42ZM236.858 17.8411C236.676 16.0078 235.896 14.5835 234.517 13.5684C233.138 12.5532 231.267 12.0457 228.903 12.0457C227.297 12.0457 225.941 12.2729 224.835 12.7275C223.729 13.1669 222.881 13.7805 222.29 14.5684C221.714 15.3563 221.426 16.2502 221.426 17.2502C221.396 18.0835 221.57 18.8108 221.949 19.432C222.343 20.0532 222.881 20.5911 223.562 21.0457C224.244 21.485 225.032 21.8714 225.926 22.2047C226.82 22.5229 227.775 22.7957 228.79 23.0229L232.972 24.0229C235.002 24.4775 236.866 25.0835 238.562 25.8411C240.259 26.5987 241.729 27.5305 242.972 28.6366C244.214 29.7426 245.176 31.0457 245.858 32.5457C246.555 34.0457 246.911 35.7654 246.926 37.7047C246.911 40.5532 246.184 43.0229 244.744 45.1138C243.32 47.1896 241.259 48.8032 238.562 49.9547C235.881 51.0911 232.646 51.6593 228.858 51.6593C225.1 51.6593 221.828 51.0835 219.04 49.932C216.267 48.7805 214.1 47.076 212.54 44.8184C210.994 42.5457 210.184 39.735 210.108 36.3866H219.631C219.737 37.9472 220.184 39.2502 220.972 40.2957C221.775 41.326 222.843 42.1063 224.176 42.6366C225.525 43.1517 227.047 43.4093 228.744 43.4093C230.411 43.4093 231.858 43.1669 233.085 42.682C234.328 42.1972 235.29 41.5229 235.972 40.6593C236.653 39.7957 236.994 38.8032 236.994 37.682C236.994 36.6366 236.684 35.7578 236.062 35.0457C235.456 34.3335 234.563 33.7275 233.381 33.2275C232.214 32.7275 230.782 32.2729 229.085 31.8638L224.017 30.5911C220.093 29.6366 216.994 28.1441 214.722 26.1138C212.449 24.0835 211.32 21.3487 211.335 17.9093C211.32 15.0911 212.07 12.629 213.585 10.5229C215.116 8.41685 217.214 6.77291 219.881 5.59109C222.547 4.40927 225.578 3.81836 228.972 3.81836C232.426 3.81836 235.441 4.40927 238.017 5.59109C240.608 6.77291 242.623 8.41685 244.062 10.5229C245.502 12.629 246.244 15.0684 246.29 17.8411H236.858ZM278.795 17.8411C278.614 16.0078 277.833 14.5835 276.455 13.5684C275.076 12.5532 273.205 12.0457 270.841 12.0457C269.235 12.0457 267.879 12.2729 266.773 12.7275C265.667 13.1669 264.818 13.7805 264.227 14.5684C263.652 15.3563 263.364 16.2502 263.364 17.2502C263.333 18.0835 263.508 18.8108 263.886 19.432C264.28 20.0532 264.818 20.5911 265.5 21.0457C266.182 21.485 266.97 21.8714 267.864 22.2047C268.758 22.5229 269.712 22.7957 270.727 23.0229L274.909 24.0229C276.939 24.4775 278.803 25.0835 280.5 25.8411C282.197 26.5987 283.667 27.5305 284.909 28.6366C286.152 29.7426 287.114 31.0457 287.795 32.5457C288.492 34.0457 288.848 35.7654 288.864 37.7047C288.848 40.5532 288.121 43.0229 286.682 45.1138C285.258 47.1896 283.197 48.8032 280.5 49.9547C277.818 51.0911 274.583 51.6593 270.795 51.6593C267.038 51.6593 263.765 51.0835 260.977 49.932C258.205 48.7805 256.038 47.076 254.477 44.8184C252.932 42.5457 252.121 39.735 252.045 36.3866H261.568C261.674 37.9472 262.121 39.2502 262.909 40.2957C263.712 41.326 264.78 42.1063 266.114 42.6366C267.462 43.1517 268.985 43.4093 270.682 43.4093C272.348 43.4093 273.795 43.1669 275.023 42.682C276.265 42.1972 277.227 41.5229 277.909 40.6593C278.591 39.7957 278.932 38.8032 278.932 37.682C278.932 36.6366 278.621 35.7578 278 35.0457C277.394 34.3335 276.5 33.7275 275.318 33.2275C274.152 32.7275 272.72 32.2729 271.023 31.8638L265.955 30.5911C262.03 29.6366 258.932 28.1441 256.659 26.1138C254.386 24.0835 253.258 21.3487 253.273 17.9093C253.258 15.0911 254.008 12.629 255.523 10.5229C257.053 8.41685 259.152 6.77291 261.818 5.59109C264.485 4.40927 267.515 3.81836 270.909 3.81836C274.364 3.81836 277.379 4.40927 279.955 5.59109C282.545 6.77291 284.561 8.41685 286 10.5229C287.439 12.629 288.182 15.0684 288.227 17.8411H278.795Z" fill="#FE8900"/>
<path d="M4.04541 107V60.4547H22.6818C26.1061 60.4547 28.9621 60.9623 31.25 61.9775C33.5379 62.9926 35.2576 64.4017 36.4091 66.2047C37.5606 67.9926 38.1364 70.0532 38.1364 72.3866C38.1364 74.2047 37.7727 75.8032 37.0455 77.182C36.3182 78.5457 35.3182 79.6669 34.0455 80.5457C32.7879 81.4093 31.3485 82.0229 29.7273 82.3866V82.8411C31.5 82.9169 33.1591 83.4169 34.7045 84.3411C36.2652 85.2654 37.5303 86.5608 38.5 88.2275C39.4697 89.879 39.9545 91.8487 39.9545 94.1366C39.9545 96.6063 39.3409 98.8108 38.1136 100.75C36.9015 102.674 35.1061 104.197 32.7273 105.318C30.3485 106.439 27.4167 107 23.9318 107H4.04541ZM13.8864 98.9547H21.9091C24.6515 98.9547 26.6515 98.432 27.9091 97.3866C29.1667 96.326 29.7955 94.9169 29.7955 93.1593C29.7955 91.8714 29.4848 90.735 28.8636 89.7502C28.2424 88.7654 27.3561 87.9926 26.2045 87.432C25.0682 86.8714 23.7121 86.5911 22.1364 86.5911H13.8864V98.9547ZM13.8864 79.932H21.1818C22.5303 79.932 23.7273 79.6972 24.7727 79.2275C25.8333 78.7426 26.6667 78.0608 27.2727 77.182C27.8939 76.3032 28.2045 75.2502 28.2045 74.0229C28.2045 72.3411 27.6061 70.985 26.4091 69.9547C25.2273 68.9244 23.5455 68.4093 21.3636 68.4093H13.8864V79.932ZM46.358 107V60.4547H56.1989V98.8866H76.1534V107H46.358ZM157.972 75.5002C157.653 74.3941 157.206 73.4169 156.631 72.5684C156.055 71.7047 155.35 70.9775 154.517 70.3866C153.699 69.7805 152.759 69.3184 151.699 69.0002C150.653 68.682 149.494 68.5229 148.222 68.5229C145.843 68.5229 143.752 69.1138 141.949 70.2957C140.161 71.4775 138.767 73.1972 137.767 75.4547C136.767 77.6972 136.267 80.4396 136.267 83.682C136.267 86.9244 136.759 89.682 137.744 91.9547C138.729 94.2275 140.123 95.9623 141.926 97.1593C143.729 98.3411 145.858 98.932 148.312 98.932C150.54 98.932 152.441 98.5381 154.017 97.7502C155.608 96.9472 156.82 95.8184 157.653 94.3638C158.502 92.9093 158.926 91.1896 158.926 89.2047L160.926 89.5002H148.926V82.0911H168.403V87.9547C168.403 92.0457 167.54 95.5608 165.812 98.5002C164.085 101.424 161.706 103.682 158.676 105.273C155.646 106.848 152.176 107.636 148.267 107.636C143.903 107.636 140.07 106.674 136.767 104.75C133.464 102.811 130.888 100.061 129.04 96.5002C127.206 92.9244 126.29 88.682 126.29 83.7729C126.29 80.0002 126.835 76.6366 127.926 73.682C129.032 70.7123 130.578 68.1972 132.562 66.1366C134.547 64.076 136.858 62.5078 139.494 61.432C142.131 60.3563 144.987 59.8184 148.062 59.8184C150.699 59.8184 153.153 60.2047 155.426 60.9775C157.699 61.735 159.714 62.8108 161.472 64.2047C163.244 65.5987 164.691 67.2578 165.812 69.182C166.934 71.0911 167.653 73.1972 167.972 75.5002H157.972Z" fill="black"/>
<path d="M120.637 74.9344C119.497 72.2152 117.84 69.7436 115.757 67.6575C113.68 65.5677 111.212 63.9061 108.495 62.7672C105.711 61.5949 102.72 60.9939 99.6996 61H99.598C96.5257 61.0153 93.5551 61.6247 90.7571 62.8231C88.063 63.9737 85.6189 65.6381 83.5614 67.7235C81.4983 69.805 79.8597 72.2679 78.7371 74.975C77.5717 77.7902 76.9813 80.81 77.0005 83.8567C77.0157 87.3809 77.8586 90.8797 79.4328 94.0079V101.727C79.4328 103.016 80.479 104.063 81.7637 104.063H89.4722C92.6149 105.648 96.0831 106.483 99.6032 106.5H99.7098C102.747 106.5 105.687 105.911 108.459 104.758C111.163 103.633 113.621 101.991 115.696 99.9239C117.788 97.8469 119.433 95.4196 120.586 92.7129C121.779 89.9098 122.389 86.929 122.404 83.8516C122.414 80.759 121.815 77.7579 120.637 74.9344ZM89.5636 86.1875C88.223 86.1875 87.1313 85.0957 87.1313 83.75C87.1313 82.4043 88.223 81.3125 89.5636 81.3125C90.9043 81.3125 91.9962 82.4043 91.9962 83.75C91.9962 85.0957 90.9093 86.1875 89.5636 86.1875ZM99.6996 86.1875C98.3589 86.1875 97.2671 85.0957 97.2671 83.75C97.2671 82.4043 98.3589 81.3125 99.6996 81.3125C101.04 81.3125 102.132 82.4043 102.132 83.75C102.132 85.0957 101.04 86.1875 99.6996 86.1875ZM109.836 86.1875C108.495 86.1875 107.403 85.0957 107.403 83.75C107.403 82.4043 108.495 81.3125 109.836 81.3125C111.176 81.3125 112.268 82.4043 112.268 83.75C112.268 85.0957 111.176 86.1875 109.836 86.1875Z" fill="#FE8900"/>
</svg>