<?xml version="1.0" standalone="no"?>
<!DOCTYPE svg PUBLIC "-//W3C//DTD SVG 20010904//EN"
 "http://www.w3.org/TR/2001/REC-SVG-20010904/DTD/svg10.dtd">
<svg version="1.0" xmlns="http://www.w3.org/2000/svg"
 width="700.000000pt" height="700.000000pt" viewBox="0 0 700.000000 700.000000"
 preserveAspectRatio="xMidYMid meet">
<metadata>
Created by potrace 1.14, written by Peter Selinger 2001-2017
</metadata>
<g transform="translate(0.000000,700.000000) scale(0.100000,-0.100000)"
fill="#000000" stroke="none">
<path d="M3278 6995 c-1 -1 -41 -5 -88 -9 -82 -6 -120 -11 -185 -21 -16 -3
-50 -8 -75 -11 -163 -21 -575 -131 -652 -174 -10 -6 -23 -10 -30 -10 -7 -1
-31 -9 -53 -20 -22 -11 -43 -19 -47 -20 -10 0 -184 -82 -273 -127 -123 -63
-367 -215 -447 -277 -14 -12 -41 -32 -59 -46 -222 -167 -503 -451 -666 -671
-63 -85 -163 -229 -163 -234 0 -3 -22 -41 -49 -84 -143 -227 -301 -604 -376
-896 -38 -147 -78 -358 -91 -480 -3 -33 -10 -91 -14 -130 -8 -72 -5 -547 3
-600 3 -16 8 -57 11 -90 4 -33 12 -89 17 -125 6 -36 12 -76 14 -90 10 -70 62
-282 102 -410 51 -167 112 -326 174 -455 l43 -90 1 -625 c1 -483 4 -634 14
-665 35 -108 118 -196 221 -237 54 -21 66 -21 685 -23 l630 -1 80 -38 c280
-132 672 -254 940 -291 28 -4 59 -9 70 -10 233 -36 713 -41 907 -10 13 2 43 6
68 9 25 3 72 11 105 17 33 5 74 12 90 15 17 3 48 10 70 16 22 5 51 12 65 15
50 8 178 45 308 89 671 226 1266 660 1686 1229 36 50 70 95 74 100 4 6 27 41
50 78 229 363 376 710 466 1092 24 105 28 123 42 205 4 19 8 42 9 50 2 8 6 40
10 70 4 30 9 66 11 80 26 154 25 704 -1 835 -2 11 -7 40 -10 65 -3 25 -7 56
-10 70 -3 14 -8 41 -11 60 -7 47 -53 257 -64 295 -113 379 -241 670 -424 958
-168 264 -387 525 -607 722 -30 28 -71 64 -90 81 -148 133 -452 334 -679 448
-310 157 -724 291 -1020 331 -19 3 -46 7 -60 10 -13 2 -54 7 -90 11 -36 3 -76
8 -90 11 -27 5 -536 14 -542 8z m-1235 -3136 c93 -25 190 -109 234 -203 24
-53 28 -73 28 -156 0 -88 -3 -101 -33 -162 -65 -132 -192 -211 -337 -210 -333
3 -494 400 -260 638 93 94 232 129 368 93z m1567 -1 c124 -40 234 -160 256
-278 44 -242 -132 -456 -373 -453 -231 3 -409 225 -361 448 47 213 276 349
478 283z m1560 0 c161 -51 270 -200 265 -363 -3 -105 -38 -188 -112 -261 -151
-152 -395 -142 -541 22 -137 154 -118 401 43 536 85 71 237 101 345 66z"/>
</g>
</svg>
